<?xml version="1.0" standalone="no"?>
<svg
   xmlns:svg="http://www.w3.org/2000/svg"
   xmlns="http://www.w3.org/2000/svg"
   width="500" height="600"
   style="shape-rendering:geometricPrecision"
   viewBox="0 0 500 600">
<title>Six symbolic representations of external female genitals used in various historical/cultural contexts</title>
<rect width="500" height="600" style="fill:#ffffff" />
<g style="stroke:#000000; stroke-width:10; fill:none">
<title>Schematized drawing of pubic triangle, the earliest archaic form of the ancient Sumerian cuneiform sign MUNUS (meaning "woman")</title>
<path d="M25,35
h240
l-120,156.38704474Z
M145,91.38704474
v100"/>
</g>
<g transform="translate(43,1) scale(0.89,0.89)">
<title>Composite version of Hindu Yoni symbol</title>
<g style="fill:none; stroke:#000000">
<path style="stroke-width:10" d="M396,335
L456.604,184.279
C471.716,166.269,480,143.51,480,120
C480,64.7717,435.228,20,380,20
C324.772,20,280,64.7717,280,120
C280,143.51,288.283,166.269,303.396,184.279
L364,335"/>
<path style="stroke-linejoin:round; stroke-width:6" d="M364,333.865
H374
V136.971
C366.808,134.428,362,127.628,362,120
C362,110.059,370.059,102,380,102
C389.941,102,398,110.059,398,120
C398,127.628,393.192,134.428,386,136.971
V333.865
H396"/>
</g>
<path d="M359.361,336.865
L368.639,333.135
C369.116,334.321,369.361,335.587,369.361,336.865Z
M400.639,336.865
L391.361,333.135
C390.884,334.321,390.639,335.587,390.639,336.865Z"/>
</g>
<g transform="translate(-8,248) scale(0.2875,0.2875)">
<title>Pointed oval vulva symbol (as seen in many contexts, including as part of medieval Sheela-na-gig figures) with Vesica Piscis geometry</title>
<path d="M80,499
C80,706.019,192.64,896.65,374,996.542
C555.36,896.65,668,706.019,668,499
C668,291.981,555.36,101.35,374,1.458
C192.64,101.35,80,291.981,80,499Z
M120,499
C120,313.995,216.759,143.085,374,47.658
C531.241,143.085,628,313.995,628,499
C628,684.005,531.241,854.915,374,950.342
C216.759,854.915,120,684.005,120,499Z
M354,778
C354,789.04,362.96,798,374,798
C385.04,798,394,789.04,394,778
L394,220
C394,208.96,385.04,200,374,200
C362.96,200,354,208.96,354,220Z"/>
</g>
<g transform="translate(129,425) scale(0.115,-0.115)">
<title>Pointed oval within pointed oval</title>
<path d="M694,971
C694,1370.98,870.951,1698.67,1136.21,1889.9
C1141.15,1893.46,1146.58,1895.24,1152,1895.24
C1157.42,1895.24,1162.85,1893.46,1167.79,1889.9
C1433.05,1698.67,1610,1370.98,1610,971
C1610,570.87,1432.327,220.253,1170.24,-19.90625
L1152,-36.6214
L1133.76,-19.90625
C871.673,220.253,694,570.87,694,971Z
M748,971
C748,596.487,910.159,267.1735,1152,36.9736
C1393.841,267.1735,1556,596.487,1556,971
C1556,1346.89,1394.002,1652.15,1152,1834.44
C909.998,1652.15,748,1346.89,748,971Z
M869.495,939.154
C869.495,1206.98,974.28,1428.585,1133.9,1572.75
C1139.28,1577.61,1145.64,1580.04,1152,1580.04
C1158.36,1580.04,1164.72,1577.61,1170.1,1572.75
C1329.72,1428.585,1434.505,1206.98,1434.505,939.154
C1434.505,674.9365,1332.0335,437.833,1172.08,259.9105
L1152,237.575
L1131.92,259.9105
C971.9665,437.833,869.495,674.9365,869.495,939.154Z
M923.495,939.154
C923.495,700.2695,1011.825,484.9925,1152,319.054
C1292.175,484.9925,1380.505,700.2695,1380.505,939.154
C1380.505,1182.4,1289.835,1381.945,1152,1515.74
C1014.165,1381.945,923.495,1182.4,923.495,939.154Z"/>
</g>
<g transform="translate(196,586) scale(0.118,-0.118)">
<title>Egyptian hieroglyph D280a (quasi-original form of hieroglyphs N41 / N42 when used to spell ancient Egyptian words for "woman" and "vulva"/"cow", according to James P. Allen)</title>
<path d="M1038,513
c0,116.5,-3,275,-9.5,476
h-60
l3.5,-123
h-848
l3.5,123
h-60
c-6.5,-201,-9.5,-359.5,-9.5,-476
c0,-334.5,177,-513,490,-513
c313,0,490,178.5,490,513Z
M978.5,513
c-3,-227,-99,-436.5,-388,-452
v235
h-85
v-235
c-289,15.5,-385,225,-388,452
c0.5,77.5,1.5,171,4.5,282
h852
c3,-111,4,-204.5,4.5,-282Z"/>
</g>
<g transform="translate(303,288) scale(0.1,0.1)" style="stroke:#000000; stroke-width:66.6577; fill:none">
<title>Pica female symbol (Czech)</title>
<polygon points="531.429,1676.95 1151.43,436.952 1771.43,1676.95 1151.43,2916.95"/>
<line y2="2606.95" x2="1151.43" y1="746.952" x1="1151.43"/>
</g>
</svg>
